<svg id="Capa_1" enable-background="new 0 0 512.022 512.022" height="512" viewBox="0 0 512.022 512.022" width="512" xmlns="http://www.w3.org/2000/svg" xmlns:xlink="http://www.w3.org/1999/xlink"><linearGradient id="SVGID_1_" gradientUnits="userSpaceOnUse" x1="256.011" x2="256.011" y1="481.011" y2="31.011"><stop offset="0" stop-color="#00b59c"/><stop offset="1" stop-color="#9cffac"/></linearGradient><linearGradient id="SVGID_2_" gradientUnits="userSpaceOnUse" x1="256.011" x2="256.011" y1="391.011" y2="211.011"><stop offset="0" stop-color="#c3ffe8"/><stop offset=".9973" stop-color="#f0fff4"/></linearGradient><g><g id="Top_1_"><g><g><path d="m256.011 241.011c8.291 0 15-6.709 15-15v-45h135c6.064 0 11.543-3.647 13.857-9.258 2.329-5.61 1.04-12.056-3.252-16.348l-49.395-49.395 49.395-49.395c4.292-4.292 5.581-10.737 3.252-16.348-2.314-5.61-7.793-9.258-13.857-9.258h-150c-8.291 0-15 6.709-15 15v180c0 8.293 6.709 15.002 15 15.002zm251.499 214.499-125.356-124.357c-11.688-11.688-30.628-11.72-42.355-.071l-23.787 23.628-49.501-49.2c-5.7-5.999-15.298-5.999-20.999 0l-49.501 49.2-23.787-23.628c-11.727-11.649-30.667-11.617-42.355.071l-125.357 124.357c-4.501 4.2-5.7 10.501-3.301 16.201 2.401 5.7 7.8 9.3 13.801 9.3h482c6 0 11.4-3.6 13.801-9.3 2.398-5.7 1.198-12.001-3.303-16.201z" fill="url(#SVGID_1_)"/></g></g><path d="m361.011 310.011-94.501-94.501c-5.7-5.999-15.298-5.999-20.999 0l-115.5 115.501 55.501 55.499c5.7 6 15.298 6 20.999 0l49.501-49.2 49.501 49.2c2.699 3.001 6.599 4.501 10.499 4.501s7.8-1.5 10.499-4.501l55.501-55.499z" fill="url(#SVGID_2_)"/></g></g></svg>