<svg id="Capa_1" enable-background="new 0 0 512 512" height="512" viewBox="0 0 512 512" width="512" xmlns="http://www.w3.org/2000/svg" xmlns:xlink="http://www.w3.org/1999/xlink"><linearGradient id="SVGID_1_" gradientUnits="userSpaceOnUse" x1="256" x2="256" y1="512" y2="330"><stop offset="0" stop-color="#fd5900"/><stop offset="1" stop-color="#ffde00"/></linearGradient><linearGradient id="SVGID_2_" gradientUnits="userSpaceOnUse" x1="256" x2="256" y1="375" y2="0"><stop offset="0" stop-color="#ffedad"/><stop offset="1" stop-color="#ffffe5"/></linearGradient><g id="Idea_2_"><g><path d="m331 375v62c0 41.4-33.6 75-75 75s-75-33.6-75-75v-62l90-45z" fill="url(#SVGID_1_)"/><path d="m421 165c0 50.099-24.3 82.5-47.999 114-21.601 28.8-42.001 56.099-42.001 96h-150c0-39.901-20.4-67.2-42.001-96-23.699-31.5-47.999-63.901-47.999-114 0-90.901 74.099-165 165-165 112.5 0 165 98.399 165 165z" fill="url(#SVGID_2_)"/></g></g></svg>