<svg version="1.1" xmlns="http://www.w3.org/2000/svg" xmlns:xlink="http://www.w3.org/1999/xlink" width="400" height="400" viewBox="0, 0, 400,400" style="width: 30px !important;height: 30px !important;margin: 3px !important;z-index: 1 !important;display: inline-block !important;opacity: 1 !important;visibility: visible !important;"> <g> <path d="M200.078 200.078 C 110.660 289.496,37.500 362.762,37.500 362.891 C 37.500 363.020,110.766 363.125,200.313 363.125 L 363.125 363.125 363.125 200.313 C 363.125 110.766,363.019 37.500,362.891 37.500 C 362.762 37.500,289.496 110.660,200.078 200.078 " fill="#14fb84"> </path> <path d="M36.875 200.000 L 36.875 362.969 118.359 281.484 L 199.844 200.000 118.359 118.516 L 36.875 37.031 36.875 200.000 " fill="#3d5afe"> </path> <path d="M0.000 200.000 L 0.000 400.000 200.000 400.000 L 400.000 400.000 400.000 200.000 L 400.000 0.000 200.000 0.000 L 0.000 0.000 0.000 200.000 M363.745 200.138 C 363.743 289.523,363.629 362.832,363.492 363.047 C 363.294 363.359,330.386 363.422,199.981 363.360 L 36.719 363.281 36.639 200.469 C 36.595 110.922,36.637 37.452,36.731 37.202 C 36.847 36.898,63.833 63.677,118.374 118.218 L 199.844 199.688 281.406 118.123 C 353.312 46.215,363.015 36.620,363.359 37.088 C 363.671 37.512,363.749 70.609,363.745 200.138 " fill="#fbfbfc"> </path> </g> </svg>