<svg version="1.1" xmlns="http://www.w3.org/2000/svg" xmlns:xlink="http://www.w3.org/1999/xlink" width="400" height="400" viewBox="0, 0, 400,400" style="width: 30px !important;height: 30px !important;margin: 3px !important;z-index: 1 !important;display: inline-block !important;opacity: 1 !important;visibility: visible !important;"><g><path d="M200.000 200.512 L 66.094 334.354 200.234 334.365 L 334.375 334.375 334.375 200.469 C 334.375 126.820,334.270 66.587,334.141 66.616 C 334.012 66.645,273.648 126.898,200.000 200.512 " fill="#14fb84"></path><path d="M65.937 200.312 L 65.937 334.531 133.047 267.422 L 200.156 200.313 133.047 133.203 L 65.938 66.094 65.937 200.312 " fill="#3c5cfb"></path><path d="M186.250 3.150 C 176.446 3.773,161.493 6.121,152.813 8.401 C 145.261 10.383,144.858 10.502,137.813 12.823 C 133.134 14.363,128.706 15.962,127.045 16.710 C 126.522 16.946,124.406 17.844,122.344 18.706 C 76.404 37.904,39.341 74.764,18.765 121.719 C 18.388 122.578,17.894 123.703,17.666 124.219 C 15.253 129.686,11.318 141.170,9.528 147.969 C 7.777 154.623,7.541 155.616,6.592 160.313 C 4.692 169.719,3.914 175.175,3.137 184.531 C 2.326 194.297,2.483 211.172,3.465 219.688 C 4.054 224.793,5.012 231.964,5.323 233.594 C 7.100 242.889,9.175 251.707,10.839 257.031 C 26.304 306.514,57.652 345.969,101.719 371.413 C 105.627 373.670,120.162 380.938,120.767 380.938 C 120.837 380.937,121.783 381.345,122.869 381.842 C 125.427 383.014,132.070 385.625,132.493 385.625 C 132.674 385.625,133.065 385.759,133.364 385.923 C 133.860 386.196,139.179 387.991,142.969 389.165 C 145.938 390.085,152.319 391.738,156.406 392.646 C 163.731 394.273,168.950 395.205,174.844 395.938 C 176.219 396.109,178.398 396.387,179.688 396.554 C 187.234 397.537,207.986 397.721,217.031 396.885 C 224.614 396.184,231.163 395.262,237.188 394.048 C 242.668 392.944,244.466 392.538,250.938 390.943 C 275.445 384.903,305.622 369.507,325.156 353.079 C 328.256 350.472,330.794 348.318,331.119 348.019 C 337.409 342.223,345.976 333.652,348.281 330.848 C 348.453 330.639,349.440 329.484,350.474 328.281 C 356.318 321.483,362.485 313.044,368.234 303.976 C 381.547 282.976,392.685 252.322,395.623 228.594 C 395.793 227.219,396.000 225.742,396.084 225.313 C 397.348 218.785,397.902 190.663,396.933 182.188 C 396.005 174.063,395.080 167.544,394.363 164.063 C 394.203 163.289,393.850 161.531,393.577 160.156 C 387.146 127.732,371.032 95.324,348.748 70.000 C 339.873 59.914,325.330 46.524,317.521 41.250 C 317.140 40.992,315.533 39.843,313.951 38.696 C 296.762 26.230,270.821 14.197,250.156 9.104 C 249.469 8.935,247.711 8.498,246.250 8.134 C 242.694 7.248,235.294 5.787,231.250 5.174 C 229.445 4.900,227.055 4.538,225.938 4.369 C 216.832 2.991,197.898 2.410,186.250 3.150 M267.031 133.125 C 303.812 96.344,334.011 66.250,334.140 66.250 C 334.269 66.250,334.375 126.649,334.375 200.469 L 334.375 334.688 200.234 334.610 L 66.094 334.531 66.015 200.156 L 65.937 65.781 133.047 132.891 L 200.157 200.000 267.031 133.125 " fill="#fff"></path></g></svg>