<svg class="impo" version="1.1" xmlns="http://www.w3.org/2000/svg" xmlns:xlink="http://www.w3.org/1999/xlink" width="400" height="400" viewBox="0, 0, 400,400" style="width: 30px !important;height: 30px !important;margin: 3px !important;z-index: 1 !important;display: inline-block !important;opacity: 1 !important;visibility: visible !important;"><g><path d="M200.078 200.703 L 48.749 352.031 200.051 352.110 C 283.268 352.153,351.401 352.141,351.458 352.083 C 351.516 352.026,351.528 283.893,351.485 200.677 L 351.406 49.375 200.078 200.703 " fill="#14fb84"></path><path d="M48.438 200.078 C 48.438 283.395,48.543 351.563,48.672 351.563 C 48.801 351.563,82.938 317.531,124.531 275.937 L 200.156 200.312 124.297 124.453 L 48.438 48.594 48.438 200.078 " fill="#3c5cfb"></path><path d="M37.344 15.320 C 26.998 17.414,18.392 25.439,15.736 35.469 C 14.972 38.352,14.811 361.798,15.571 364.375 C 19.010 376.023,27.691 383.893,38.689 385.333 C 40.284 385.541,95.257 385.617,202.031 385.558 L 362.969 385.469 365.807 384.484 C 376.628 380.730,383.574 372.765,385.300 362.132 C 385.724 359.520,385.740 41.346,385.317 38.438 C 383.812 28.100,376.643 19.769,366.020 16.014 L 363.594 15.156 201.094 15.111 C 111.719 15.087,38.031 15.181,37.344 15.320 M124.285 124.140 L 200.158 199.999 275.782 124.374 C 317.375 82.781,351.511 48.750,351.640 48.750 C 351.769 48.750,351.875 117.094,351.875 200.625 L 351.875 352.500 200.000 352.500 L 48.125 352.500 48.125 200.260 C 48.125 116.529,48.189 48.079,48.268 48.151 C 48.347 48.223,82.554 82.418,124.285 124.140 " fill="#fff"></path></g></svg>