<?xml version="1.0" encoding="utf-8"?>
<!-- Generator: Adobe Illustrator 22.0.1, SVG Export Plug-In . SVG Version: 6.00 Build 0)  -->
<svg version="1.1" id="Layer_1" xmlns="http://www.w3.org/2000/svg" xmlns:xlink="http://www.w3.org/1999/xlink" x="0px" y="0px"
	 viewBox="0 0 160 160" style="enable-background:new 0 0 160 160;" xml:space="preserve">
<style type="text/css">
	.st0{fill:url(#SVGID_1_);}
	.st1{fill:#323A46;}
</style>
<g>
	<linearGradient id="SVGID_1_" gradientUnits="userSpaceOnUse" x1="80" y1="27.4268" x2="80" y2="138.4751">
		<stop  offset="0" style="stop-color:#1ED199"/>
		<stop  offset="0.176" style="stop-color:#1CD698"/>
		<stop  offset="1" style="stop-color:#16E893"/>
	</linearGradient>
	<path class="st0" d="M137.3,139c11.4,0,20.6-9.2,20.6-20.6c0-3.6-0.9-6.9-2.5-9.8l-33.6-67.2c-1-2.2-2.4-4.2-4.2-6
		c-8-8-21-8-29.1,0c-1.8,1.8-3.2,3.8-4.2,6L80,49.9l-4.3-8.6c-1-2.2-2.4-4.2-4.2-6c-8-8-21-8-29.1,0c-1.8,1.8-3.2,3.8-4.2,6
		L4.7,108.6c-1.6,2.9-2.5,6.3-2.5,9.8l0,0l0,0c0,3.5,0.9,6.8,2.4,9.6C8,134.6,14.9,139,22.7,139H137.3L137.3,139
		C137.3,139,137.3,139,137.3,139L137.3,139L137.3,139z"/>
	<path class="st1" d="M155.3,108.6l-33.6-67.2c-1-2.2-2.4-4.2-4.2-6c-8-8-21-8-29.1,0c-1.8,1.8-3.2,3.8-4.2,6L80,49.9l39,78
		c3.4,6.6,10.3,11.1,18.2,11.1l0,0l0,0c11.4,0,20.6-9.2,20.6-20.6C157.8,114.9,156.9,111.5,155.3,108.6z"/>
</g>
</svg>
